<mxfile host="app.diagrams.net" modified="2022-12-02T17:28:51.754Z" agent="5.0 (Windows NT 10.0; Win64; x64) AppleWebKit/537.36 (KHTML, like Gecko) Chrome/108.0.0.0 Safari/537.36" etag="UQfU-3lrbFnblqphq4Jz" version="20.5.1" type="github">
  <diagram id="kgpKYQtTHZ0yAKxKKP6v" name="Page-1">
    <mxGraphModel dx="1182" dy="732" grid="1" gridSize="10" guides="1" tooltips="1" connect="1" arrows="1" fold="1" page="1" pageScale="1" pageWidth="1169" pageHeight="1654" math="0" shadow="0">
      <root>
        <mxCell id="0" />
        <mxCell id="1" parent="0" />
        <mxCell id="nodkvoqhtAFXwThamSRo-81" value="OPT" style="shape=umlFrame;whiteSpace=wrap;html=1;width=120;height=30;boundedLbl=1;verticalAlign=middle;align=left;spacingLeft=5;dashed=1;fillColor=none;" vertex="1" parent="1">
          <mxGeometry y="610" width="980" height="430" as="geometry" />
        </mxCell>
        <mxCell id="nodkvoqhtAFXwThamSRo-1" value="Ejercicio 3&#xa;Teniendo en cuenta el código fuente del ejercicio 2, realice el diagrama de secuencia para el caso que&#xa;un objeto c de tipo Calendario recibe el mensaje addReserva con el objeto r1 de tipo Reserva como&#xa;parámetro" style="text;whiteSpace=wrap;html=1;" vertex="1" parent="1">
          <mxGeometry x="35" y="10" width="560" height="70" as="geometry" />
        </mxCell>
        <mxCell id="nodkvoqhtAFXwThamSRo-2" value="c:Calendario" style="rounded=0;whiteSpace=wrap;html=1;" vertex="1" parent="1">
          <mxGeometry x="120" y="100" width="120" height="60" as="geometry" />
        </mxCell>
        <mxCell id="nodkvoqhtAFXwThamSRo-3" value="" style="endArrow=none;dashed=1;html=1;dashPattern=1 3;strokeWidth=2;rounded=0;entryX=0.633;entryY=1.017;entryDx=0;entryDy=0;entryPerimeter=0;" edge="1" parent="1" target="nodkvoqhtAFXwThamSRo-2">
          <mxGeometry width="50" height="50" relative="1" as="geometry">
            <mxPoint x="200" y="1320" as="sourcePoint" />
            <mxPoint x="530" y="300" as="targetPoint" />
          </mxGeometry>
        </mxCell>
        <mxCell id="nodkvoqhtAFXwThamSRo-4" value="" style="endArrow=classic;html=1;rounded=0;" edge="1" parent="1">
          <mxGeometry width="50" height="50" relative="1" as="geometry">
            <mxPoint x="120" y="200" as="sourcePoint" />
            <mxPoint x="200" y="200" as="targetPoint" />
          </mxGeometry>
        </mxCell>
        <mxCell id="nodkvoqhtAFXwThamSRo-5" value="r1: Reserva" style="text;html=1;strokeColor=none;fillColor=none;align=center;verticalAlign=middle;whiteSpace=wrap;rounded=0;" vertex="1" parent="1">
          <mxGeometry x="50" y="170" width="110" height="30" as="geometry" />
        </mxCell>
        <mxCell id="nodkvoqhtAFXwThamSRo-6" value="herramienta: Herramienta" style="rounded=0;whiteSpace=wrap;html=1;" vertex="1" parent="1">
          <mxGeometry x="280" y="100" width="120" height="60" as="geometry" />
        </mxCell>
        <mxCell id="nodkvoqhtAFXwThamSRo-7" value="getHerramienta()" style="text;whiteSpace=wrap;html=1;" vertex="1" parent="1">
          <mxGeometry x="200" y="200" width="120" height="30" as="geometry" />
        </mxCell>
        <mxCell id="nodkvoqhtAFXwThamSRo-8" value="" style="endArrow=none;dashed=1;html=1;dashPattern=1 3;strokeWidth=2;rounded=0;entryX=0.633;entryY=1.017;entryDx=0;entryDy=0;entryPerimeter=0;" edge="1" parent="1">
          <mxGeometry width="50" height="50" relative="1" as="geometry">
            <mxPoint x="360" y="1320" as="sourcePoint" />
            <mxPoint x="360" y="159.99999999999997" as="targetPoint" />
          </mxGeometry>
        </mxCell>
        <mxCell id="nodkvoqhtAFXwThamSRo-9" value="" style="endArrow=classic;html=1;rounded=0;" edge="1" parent="1">
          <mxGeometry width="50" height="50" relative="1" as="geometry">
            <mxPoint x="200" y="230" as="sourcePoint" />
            <mxPoint x="360" y="230" as="targetPoint" />
          </mxGeometry>
        </mxCell>
        <mxCell id="nodkvoqhtAFXwThamSRo-10" value="" style="endArrow=classic;html=1;rounded=0;dashed=1;" edge="1" parent="1">
          <mxGeometry width="50" height="50" relative="1" as="geometry">
            <mxPoint x="360" y="261" as="sourcePoint" />
            <mxPoint x="200" y="261" as="targetPoint" />
          </mxGeometry>
        </mxCell>
        <mxCell id="nodkvoqhtAFXwThamSRo-11" value="herramienta: Herramienta" style="text;whiteSpace=wrap;html=1;" vertex="1" parent="1">
          <mxGeometry x="200" y="230" width="150" height="30" as="geometry" />
        </mxCell>
        <mxCell id="nodkvoqhtAFXwThamSRo-12" value="reservas: List" style="rounded=0;whiteSpace=wrap;html=1;" vertex="1" parent="1">
          <mxGeometry x="440" y="100" width="120" height="60" as="geometry" />
        </mxCell>
        <mxCell id="nodkvoqhtAFXwThamSRo-13" value="" style="endArrow=none;dashed=1;html=1;dashPattern=1 3;strokeWidth=2;rounded=0;entryX=0.633;entryY=1.017;entryDx=0;entryDy=0;entryPerimeter=0;" edge="1" parent="1">
          <mxGeometry width="50" height="50" relative="1" as="geometry">
            <mxPoint x="520" y="1320" as="sourcePoint" />
            <mxPoint x="520" y="160" as="targetPoint" />
          </mxGeometry>
        </mxCell>
        <mxCell id="nodkvoqhtAFXwThamSRo-14" value="" style="endArrow=classic;html=1;rounded=0;" edge="1" parent="1">
          <mxGeometry width="50" height="50" relative="1" as="geometry">
            <mxPoint x="200" y="290" as="sourcePoint" />
            <mxPoint x="520" y="290" as="targetPoint" />
          </mxGeometry>
        </mxCell>
        <mxCell id="nodkvoqhtAFXwThamSRo-15" value="iterator()" style="text;whiteSpace=wrap;html=1;" vertex="1" parent="1">
          <mxGeometry x="380" y="440" width="90" height="30" as="geometry" />
        </mxCell>
        <mxCell id="nodkvoqhtAFXwThamSRo-17" value="" style="endArrow=classic;html=1;rounded=0;dashed=1;" edge="1" parent="1">
          <mxGeometry width="50" height="50" relative="1" as="geometry">
            <mxPoint x="520" y="340" as="sourcePoint" />
            <mxPoint x="200" y="340" as="targetPoint" />
          </mxGeometry>
        </mxCell>
        <mxCell id="nodkvoqhtAFXwThamSRo-18" value="fInicio:Date" style="text;html=1;strokeColor=none;fillColor=none;align=center;verticalAlign=middle;whiteSpace=wrap;rounded=0;" vertex="1" parent="1">
          <mxGeometry x="280" y="310" width="60" height="30" as="geometry" />
        </mxCell>
        <mxCell id="nodkvoqhtAFXwThamSRo-19" value="" style="endArrow=classic;html=1;rounded=0;" edge="1" parent="1">
          <mxGeometry width="50" height="50" relative="1" as="geometry">
            <mxPoint x="200" y="379" as="sourcePoint" />
            <mxPoint x="520" y="379" as="targetPoint" />
          </mxGeometry>
        </mxCell>
        <mxCell id="nodkvoqhtAFXwThamSRo-20" value="getfFin()" style="text;whiteSpace=wrap;html=1;dashed=1;" vertex="1" parent="1">
          <mxGeometry x="380" y="350" width="90" height="30" as="geometry" />
        </mxCell>
        <mxCell id="nodkvoqhtAFXwThamSRo-21" value="" style="endArrow=classic;html=1;rounded=0;dashed=1;" edge="1" parent="1">
          <mxGeometry width="50" height="50" relative="1" as="geometry">
            <mxPoint x="520" y="420" as="sourcePoint" />
            <mxPoint x="200" y="420" as="targetPoint" />
          </mxGeometry>
        </mxCell>
        <mxCell id="nodkvoqhtAFXwThamSRo-22" value="fFin:Date" style="text;html=1;strokeColor=none;fillColor=none;align=center;verticalAlign=middle;whiteSpace=wrap;rounded=0;" vertex="1" parent="1">
          <mxGeometry x="280" y="390" width="60" height="30" as="geometry" />
        </mxCell>
        <mxCell id="nodkvoqhtAFXwThamSRo-23" value="" style="endArrow=classic;html=1;rounded=0;" edge="1" parent="1">
          <mxGeometry width="50" height="50" relative="1" as="geometry">
            <mxPoint x="200" y="480" as="sourcePoint" />
            <mxPoint x="520" y="480" as="targetPoint" />
          </mxGeometry>
        </mxCell>
        <mxCell id="nodkvoqhtAFXwThamSRo-25" value="getfInicio()" style="text;whiteSpace=wrap;html=1;" vertex="1" parent="1">
          <mxGeometry x="390" y="260" width="90" height="30" as="geometry" />
        </mxCell>
        <mxCell id="nodkvoqhtAFXwThamSRo-27" value="" style="endArrow=classic;html=1;rounded=0;dashed=1;" edge="1" parent="1">
          <mxGeometry width="50" height="50" relative="1" as="geometry">
            <mxPoint x="520" y="519" as="sourcePoint" />
            <mxPoint x="200" y="519" as="targetPoint" />
          </mxGeometry>
        </mxCell>
        <mxCell id="nodkvoqhtAFXwThamSRo-28" value="it:iterator" style="text;whiteSpace=wrap;html=1;" vertex="1" parent="1">
          <mxGeometry x="270" y="490" width="90" height="30" as="geometry" />
        </mxCell>
        <mxCell id="nodkvoqhtAFXwThamSRo-31" value="" style="endArrow=classic;html=1;rounded=0;" edge="1" parent="1">
          <mxGeometry width="50" height="50" relative="1" as="geometry">
            <mxPoint x="200" y="560" as="sourcePoint" />
            <mxPoint x="650" y="560" as="targetPoint" />
          </mxGeometry>
        </mxCell>
        <mxCell id="nodkvoqhtAFXwThamSRo-32" value="" style="endArrow=classic;html=1;rounded=0;dashed=1;" edge="1" parent="1">
          <mxGeometry width="50" height="50" relative="1" as="geometry">
            <mxPoint x="640" y="600" as="sourcePoint" />
            <mxPoint x="200" y="600" as="targetPoint" />
          </mxGeometry>
        </mxCell>
        <mxCell id="nodkvoqhtAFXwThamSRo-34" value="hasNext()" style="text;whiteSpace=wrap;html=1;" vertex="1" parent="1">
          <mxGeometry x="550" y="530" width="90" height="30" as="geometry" />
        </mxCell>
        <mxCell id="nodkvoqhtAFXwThamSRo-35" value="it:iterator" style="rounded=0;whiteSpace=wrap;html=1;" vertex="1" parent="1">
          <mxGeometry x="595" y="100" width="85" height="60" as="geometry" />
        </mxCell>
        <mxCell id="nodkvoqhtAFXwThamSRo-36" value="" style="endArrow=none;dashed=1;html=1;dashPattern=1 3;strokeWidth=2;rounded=0;entryX=0.633;entryY=1.017;entryDx=0;entryDy=0;entryPerimeter=0;" edge="1" parent="1">
          <mxGeometry width="50" height="50" relative="1" as="geometry">
            <mxPoint x="650" y="1320" as="sourcePoint" />
            <mxPoint x="650" y="160" as="targetPoint" />
          </mxGeometry>
        </mxCell>
        <mxCell id="nodkvoqhtAFXwThamSRo-37" value="next: boolean" style="text;whiteSpace=wrap;html=1;" vertex="1" parent="1">
          <mxGeometry x="420" y="570" width="90" height="30" as="geometry" />
        </mxCell>
        <mxCell id="nodkvoqhtAFXwThamSRo-38" value="next==True" style="text;html=1;strokeColor=none;fillColor=none;align=center;verticalAlign=middle;whiteSpace=wrap;rounded=0;dashed=1;" vertex="1" parent="1">
          <mxGeometry x="30" y="660" width="60" height="30" as="geometry" />
        </mxCell>
        <mxCell id="nodkvoqhtAFXwThamSRo-41" value="" style="endArrow=classic;html=1;rounded=0;" edge="1" parent="1">
          <mxGeometry width="50" height="50" relative="1" as="geometry">
            <mxPoint x="200" y="670" as="sourcePoint" />
            <mxPoint x="650" y="670" as="targetPoint" />
          </mxGeometry>
        </mxCell>
        <mxCell id="nodkvoqhtAFXwThamSRo-42" value="next()" style="text;whiteSpace=wrap;html=1;" vertex="1" parent="1">
          <mxGeometry x="540" y="630" width="90" height="30" as="geometry" />
        </mxCell>
        <mxCell id="nodkvoqhtAFXwThamSRo-44" value="" style="endArrow=classic;html=1;rounded=0;dashed=1;" edge="1" parent="1">
          <mxGeometry width="50" height="50" relative="1" as="geometry">
            <mxPoint x="645" y="709" as="sourcePoint" />
            <mxPoint x="205" y="709" as="targetPoint" />
          </mxGeometry>
        </mxCell>
        <mxCell id="nodkvoqhtAFXwThamSRo-45" value="reserva:Reserva" style="text;whiteSpace=wrap;html=1;" vertex="1" parent="1">
          <mxGeometry x="425" y="679" width="90" height="30" as="geometry" />
        </mxCell>
        <mxCell id="nodkvoqhtAFXwThamSRo-46" value="reserva:&lt;br&gt;Reserva" style="rounded=0;whiteSpace=wrap;html=1;" vertex="1" parent="1">
          <mxGeometry x="720" y="100" width="80" height="60" as="geometry" />
        </mxCell>
        <mxCell id="nodkvoqhtAFXwThamSRo-47" value="" style="endArrow=none;dashed=1;html=1;dashPattern=1 3;strokeWidth=2;rounded=0;entryX=0.633;entryY=1.017;entryDx=0;entryDy=0;entryPerimeter=0;" edge="1" parent="1">
          <mxGeometry width="50" height="50" relative="1" as="geometry">
            <mxPoint x="760" y="1310" as="sourcePoint" />
            <mxPoint x="760" y="160" as="targetPoint" />
          </mxGeometry>
        </mxCell>
        <mxCell id="nodkvoqhtAFXwThamSRo-50" value="" style="endArrow=classic;html=1;rounded=0;" edge="1" parent="1">
          <mxGeometry width="50" height="50" relative="1" as="geometry">
            <mxPoint x="200" y="760" as="sourcePoint" />
            <mxPoint x="760" y="760" as="targetPoint" />
          </mxGeometry>
        </mxCell>
        <mxCell id="nodkvoqhtAFXwThamSRo-51" value="getfInicio()" style="text;whiteSpace=wrap;html=1;" vertex="1" parent="1">
          <mxGeometry x="660" y="720" width="90" height="30" as="geometry" />
        </mxCell>
        <mxCell id="nodkvoqhtAFXwThamSRo-52" value="" style="endArrow=classic;html=1;rounded=0;dashed=1;" edge="1" parent="1">
          <mxGeometry width="50" height="50" relative="1" as="geometry">
            <mxPoint x="760" y="800" as="sourcePoint" />
            <mxPoint x="200" y="800" as="targetPoint" />
          </mxGeometry>
        </mxCell>
        <mxCell id="nodkvoqhtAFXwThamSRo-53" value="fInicio1:Date" style="text;whiteSpace=wrap;html=1;" vertex="1" parent="1">
          <mxGeometry x="550" y="770" width="90" height="20" as="geometry" />
        </mxCell>
        <mxCell id="nodkvoqhtAFXwThamSRo-56" value="" style="endArrow=classic;html=1;rounded=0;" edge="1" parent="1">
          <mxGeometry width="50" height="50" relative="1" as="geometry">
            <mxPoint x="200" y="840" as="sourcePoint" />
            <mxPoint x="760" y="840" as="targetPoint" />
          </mxGeometry>
        </mxCell>
        <mxCell id="nodkvoqhtAFXwThamSRo-57" value="getfFin()" style="text;whiteSpace=wrap;html=1;" vertex="1" parent="1">
          <mxGeometry x="660" y="800" width="90" height="30" as="geometry" />
        </mxCell>
        <mxCell id="nodkvoqhtAFXwThamSRo-58" value="" style="endArrow=classic;html=1;rounded=0;dashed=1;" edge="1" parent="1">
          <mxGeometry width="50" height="50" relative="1" as="geometry">
            <mxPoint x="760" y="880" as="sourcePoint" />
            <mxPoint x="200" y="880" as="targetPoint" />
          </mxGeometry>
        </mxCell>
        <mxCell id="nodkvoqhtAFXwThamSRo-59" value="fFin1:Date" style="text;whiteSpace=wrap;html=1;" vertex="1" parent="1">
          <mxGeometry x="550" y="850" width="90" height="20" as="geometry" />
        </mxCell>
        <mxCell id="nodkvoqhtAFXwThamSRo-60" value="otraReserva:&lt;br&gt;Reserva" style="rounded=0;whiteSpace=wrap;html=1;" vertex="1" parent="1">
          <mxGeometry x="840" y="100" width="80" height="60" as="geometry" />
        </mxCell>
        <mxCell id="nodkvoqhtAFXwThamSRo-61" value="" style="endArrow=none;dashed=1;html=1;dashPattern=1 3;strokeWidth=2;rounded=0;entryX=0.633;entryY=1.017;entryDx=0;entryDy=0;entryPerimeter=0;" edge="1" parent="1">
          <mxGeometry width="50" height="50" relative="1" as="geometry">
            <mxPoint x="880" y="1320" as="sourcePoint" />
            <mxPoint x="880" y="160" as="targetPoint" />
          </mxGeometry>
        </mxCell>
        <mxCell id="nodkvoqhtAFXwThamSRo-62" value="" style="endArrow=classic;html=1;rounded=0;" edge="1" parent="1">
          <mxGeometry width="50" height="50" relative="1" as="geometry">
            <mxPoint x="200" y="920" as="sourcePoint" />
            <mxPoint x="880" y="920" as="targetPoint" />
          </mxGeometry>
        </mxCell>
        <mxCell id="nodkvoqhtAFXwThamSRo-63" value="seSolapa(fInicio1)" style="text;whiteSpace=wrap;html=1;" vertex="1" parent="1">
          <mxGeometry x="770" y="880" width="90" height="30" as="geometry" />
        </mxCell>
        <mxCell id="nodkvoqhtAFXwThamSRo-64" value="" style="endArrow=classic;html=1;rounded=0;dashed=1;" edge="1" parent="1">
          <mxGeometry width="50" height="50" relative="1" as="geometry">
            <mxPoint x="880" y="960" as="sourcePoint" />
            <mxPoint x="200" y="960" as="targetPoint" />
          </mxGeometry>
        </mxCell>
        <mxCell id="nodkvoqhtAFXwThamSRo-65" value="fInicioSolapa:boolean" style="text;whiteSpace=wrap;html=1;" vertex="1" parent="1">
          <mxGeometry x="670" y="930" width="90" height="20" as="geometry" />
        </mxCell>
        <mxCell id="nodkvoqhtAFXwThamSRo-66" value="" style="endArrow=classic;html=1;rounded=0;" edge="1" parent="1">
          <mxGeometry width="50" height="50" relative="1" as="geometry">
            <mxPoint x="200" y="1000" as="sourcePoint" />
            <mxPoint x="880" y="1000" as="targetPoint" />
          </mxGeometry>
        </mxCell>
        <mxCell id="nodkvoqhtAFXwThamSRo-68" value="" style="endArrow=classic;html=1;rounded=0;dashed=1;" edge="1" parent="1">
          <mxGeometry width="50" height="50" relative="1" as="geometry">
            <mxPoint x="200" y="1220" as="sourcePoint" />
            <mxPoint x="35" y="1220" as="targetPoint" />
          </mxGeometry>
        </mxCell>
        <mxCell id="nodkvoqhtAFXwThamSRo-72" value="seSolapa(fFin1)" style="text;whiteSpace=wrap;html=1;" vertex="1" parent="1">
          <mxGeometry x="770" y="970" width="90" height="30" as="geometry" />
        </mxCell>
        <mxCell id="nodkvoqhtAFXwThamSRo-73" value="fFinSolapa:boolean" style="text;whiteSpace=wrap;html=1;" vertex="1" parent="1">
          <mxGeometry x="670" y="1010" width="90" height="20" as="geometry" />
        </mxCell>
        <mxCell id="nodkvoqhtAFXwThamSRo-76" value="TRUE" style="text;whiteSpace=wrap;html=1;" vertex="1" parent="1">
          <mxGeometry x="100" y="1180" width="50" height="30" as="geometry" />
        </mxCell>
        <mxCell id="nodkvoqhtAFXwThamSRo-77" value="fInicioSolapa==FALSE &lt;br&gt;AND&lt;br&gt;fFinSolapa==FALSE" style="text;whiteSpace=wrap;html=1;" vertex="1" parent="1">
          <mxGeometry x="40" y="1110" width="130" height="50" as="geometry" />
        </mxCell>
        <mxCell id="nodkvoqhtAFXwThamSRo-80" value="OPT" style="shape=umlFrame;whiteSpace=wrap;html=1;width=120;height=30;boundedLbl=1;verticalAlign=middle;align=left;spacingLeft=5;dashed=1;" vertex="1" parent="1">
          <mxGeometry y="1050" width="980" height="200" as="geometry" />
        </mxCell>
        <mxCell id="nodkvoqhtAFXwThamSRo-78" value="" style="endArrow=classic;html=1;rounded=0;" edge="1" parent="1">
          <mxGeometry width="50" height="50" relative="1" as="geometry">
            <mxPoint x="360" y="1080" as="sourcePoint" />
            <mxPoint x="760" y="1080.5" as="targetPoint" />
          </mxGeometry>
        </mxCell>
        <mxCell id="nodkvoqhtAFXwThamSRo-79" value="addReserva(r1)" style="text;whiteSpace=wrap;html=1;" vertex="1" parent="1">
          <mxGeometry x="540" y="1090" width="90" height="30" as="geometry" />
        </mxCell>
        <mxCell id="nodkvoqhtAFXwThamSRo-83" value="" style="endArrow=classic;html=1;rounded=0;dashed=1;" edge="1" parent="1">
          <mxGeometry width="50" height="50" relative="1" as="geometry">
            <mxPoint x="200" y="1300" as="sourcePoint" />
            <mxPoint x="30" y="1300" as="targetPoint" />
          </mxGeometry>
        </mxCell>
        <mxCell id="nodkvoqhtAFXwThamSRo-84" value="FALSE" style="text;whiteSpace=wrap;html=1;" vertex="1" parent="1">
          <mxGeometry x="90" y="1270" width="90" height="20" as="geometry" />
        </mxCell>
      </root>
    </mxGraphModel>
  </diagram>
</mxfile>
